{"title":"1001 Grams (2014) 1080P WEB-DL DD5 1 H 264","magnet":"magnet:?xt=urn:btih:992ac63724633e2c68d6f1118a434811a901deee&dn=1001+Grams+%282014%29+1080P+WEB-DL+DD5+1+H+264&tr=udp%3A%2F%2Ftracker.leechers-paradise.org%3A6969&tr=udp%3A%2F%2Fzer0day.ch%3A1337&tr=udp%3A%2F%2Fopen.demonii.com%3A1337&tr=udp%3A%2F%2Ftracker.coppersurfer.tk%3A6969&tr=udp%3A%2F%2Fexodus.desync.com%3A6969","uploader":"jmanwf","categoryP":"video","categoryS":"hd___movies","size":"3393685896","seeders":"0","leechers":"0","description":"When Norwegian scientist Marie attends a seminar in Paris on the actual weight of a kilo, it is her own measurement of disappointment, grief and, not least, love, that ends up on the scale.\r\n\r\n\r\nFormat                                   : Matroska\r\nFormat version                           : Version 4 / Version 2\r\nVideo\r\nID                                       : 1\r\nFormat                                   : AVC\r\nFormat/Info                              : Advanced Video Codec\r\nFormat profile                           : <a class=\"__cf_email__\" href=\"/cdn-cgi/l/email-protection\" data-cfemail=\"d59dbcb2bd9599e1\">[email&#xA0;protected]</a><script data-cfhash=\"f9e31\" type=\"text/javascript\">/* <![CDATA[ */!function(t,e,r,n,c,a,p){try{t=document.currentScript||function(){for(t=document.getElementsByTagName('script'),e=t.length;e--;)if(t[e].getAttribute('data-cfhash'))return t[e]}();if(t&&(c=t.previousSibling)){p=t.parentNode;if(a=c.getAttribute('data-cfemail')){for(e='',r='0x'+a.substr(0,2)|0,n=2;a.length-n;n+=2)e+='%'+('0'+('0x'+a.substr(n,2)^r).toString(16)).slice(-2);p.replaceChild(document.createTextNode(decodeURIComponent(e)),c)}p.removeChild(t)}}catch(u){}}()/* ]]> */</script>\r\nFormat settings, CABAC                   : Yes\r\nFormat settings, ReFrames                : 5 frames\r\nCodec ID                                 : V_MPEG4/ISO/AVC\r\nDuration                                 : 1 h 30 min\r\nBit rate                                 : 4 463 kb/s\r\nWidth                                    : 1 920 pixels\r\nHeight                                   : 804 pixels\r\nDisplay aspect ratio                     : 2.40:1\r\nFrame rate mode                          : Constant\r\nFrame rate                               : 24.000 FPS\r\nColor space                              : YUV\r\nChroma subsampling                       : 4:2:0\r\nBit depth                                : 8 bits\r\nScan type                                : Progressive\r\nBits/(Pixel*Frame)                       : 0.120\r\nStream size                              : 2.84 GiB (90%)\r\nLanguage                                 : Norwegian\r\n\r\n\r\nAudio #1\r\nID                                       : 2\r\nFormat                                   : AAC\r\nFormat/Info                              : Advanced Audio Codec\r\nFormat profile                           : LC\r\nCodec ID                                 : A_AAC\r\nDuration                                 : 1 h 30 min\r\nBit rate                                 : 124 kb/s\r\nChannel(s)                               : 2 channels\r\nChannel positions                        : Front: L R\r\n\r\nComp\r\nAudio #2\r\nID                                       : 3\r\nFormat                                   : AC-3\r\nFormat/Info                              : Audio Coding 3\r\nMode extension                           : CM (complete main)\r\nFormat settings, Endianness              : Big\r\nCodec ID                                 : A_AC3\r\nDuration                                 : 1 h 30 min\r\nBit rate mode                            : Constant\r\nBit rate                                 : 384 kb/s\r\nChannel(s)                               : 6 channels\r\nChannel positions                        : Front: L C R, Side: L R, LFE\r\n\r\nID                                       : 4\r\nFormat                                   : UTF-8\r\nCodec ID                                 : S_TEXT/UTF8\r\nCodec ID/Info                            : UTF-8 Plain Text\r\nDuration                                 : 1 h 24 min\r\nBit rate                                 : 19 b/s\r\nCount of elements                        : 436\r\nStream size                              : 12.3 KiB (0%)\r\nLanguage                                 : English\r\nDefault                                  : Yes\r\nForced                                   : No\r\n\r\n\r\n <a href=\"\nhttp://www.imdb.com/title/tt3346824/\" rel=\"nofollow\" target=\"_NEW\">\nhttp://www.imdb.com/title/tt3346824/</a>\r\n\r\n\r\n\r\n\r\nLanguage: Norwegian | French | English","last_updated":"2017-05-25T10:49:58.015Z","parsed":{"xt":"urn:btih:992ac63724633e2c68d6f1118a434811a901deee","dn":"1001 Grams (2014) 1080P WEB-DL DD5 1 H 264","tr":["udp://exodus.desync.com:6969","udp://open.demonii.com:1337","udp://tracker.coppersurfer.tk:6969","udp://tracker.leechers-paradise.org:6969","udp://zer0day.ch:1337"],"infoHash":"992ac63724633e2c68d6f1118a434811a901deee","infoHashBuffer":{"type":"Buffer","data":[153,42,198,55,36,99,62,44,104,214,241,17,138,67,72,17,169,1,222,238]},"name":"1001 Grams (2014) 1080P WEB-DL DD5 1 H 264","announce":["udp://exodus.desync.com:6969","udp://open.demonii.com:1337","udp://tracker.coppersurfer.tk:6969","udp://tracker.leechers-paradise.org:6969","udp://zer0day.ch:1337"],"urlList":[]}}